<svg width="54" height="48" viewBox="0 0 54 48" fill="none" xmlns="http://www.w3.org/2000/svg">
<path fill-rule="evenodd" clip-rule="evenodd" d="M52.4283 0.946667C52.8731 1.39198 53.1229 1.99562 53.1229 2.625C53.1229 3.25438 52.8731 3.85802 52.4283 4.30333L28.6783 28.0533C28.233 28.4981 27.6294 28.7479 27 28.7479C26.3706 28.7479 25.767 28.4981 25.3216 28.0533L1.57164 4.30333C1.15212 3.85311 0.923735 3.25763 0.934591 2.64235C0.945447 2.02706 1.1947 1.44001 1.62984 1.00486C2.06498 0.569723 2.65204 0.320469 3.26732 0.309613C3.88261 0.298757 4.47809 0.527147 4.92831 0.946667L27 23.0183L49.0716 0.946667C49.517 0.501907 50.1206 0.25209 50.75 0.25209C51.3794 0.25209 51.983 0.501907 52.4283 0.946667ZM52.4283 19.9467C52.8731 20.392 53.1229 20.9956 53.1229 21.625C53.1229 22.2544 52.8731 22.858 52.4283 23.3033L28.6783 47.0533C28.233 47.4981 27.6294 47.7479 27 47.7479C26.3706 47.7479 25.767 47.4981 25.3216 47.0533L1.57164 23.3033C1.3383 23.0859 1.15115 22.8237 1.02134 22.5324C0.891531 22.241 0.821731 21.9265 0.816104 21.6077C0.810478 21.2888 0.869139 20.972 0.988589 20.6763C1.10804 20.3805 1.28583 20.1119 1.51136 19.8864C1.73688 19.6609 2.00552 19.4831 2.30125 19.3636C2.59698 19.2442 2.91374 19.1855 3.23263 19.1911C3.55153 19.1968 3.86602 19.2666 4.15735 19.3964C4.44868 19.5262 4.71088 19.7133 4.92831 19.9467L27 42.0183L49.0716 19.9467C49.517 19.5019 50.1206 19.2521 50.75 19.2521C51.3794 19.2521 51.983 19.5019 52.4283 19.9467Z" fill="url(#paint0_linear_9_4)"/>
<defs>
<linearGradient id="paint0_linear_9_4" x1="26.9693" y1="0.252091" x2="43.1228" y2="67.4227" gradientUnits="userSpaceOnUse">
<stop stop-color="#FFFCFC"/>
<stop offset="1" stop-color="#D5D5D5" stop-opacity="0.65"/>
</linearGradient>
</defs>
</svg>
